<svg id="Alien_1" data-name="Alien 1" xmlns="http://www.w3.org/2000/svg" viewBox="0 0 240 240"><defs><style>.cls-1{fill:#4b877b;}.cls-2{fill:#fff;}.cls-3{fill:#232d2b;}.cls-4{fill:#3c665e;}.cls-5{opacity:0.2;}.cls-6{fill:#00f9ff;}.cls-7{fill:#677575;}</style></defs><g id="Face"><path class="cls-1" d="M180.15,59q-1.5-1.53-3.11-3A83.58,83.58,0,0,0,168,48.84c-1.15-.79-2.32-1.56-3.52-2.29a84.36,84.36,0,0,0-9.92-5.23c-1.23-.55-2.49-1.08-3.75-1.56a83.66,83.66,0,0,0-16.88-4.62c-1.31-.22-2.63-.41-4-.56A85.91,85.91,0,0,0,120,34c-.39,0-.78,0-1.17,0-1.36,0-2.71.06-4,.14-2.26.13-4.49.36-6.69.67-1.33.18-2.64.4-4,.66q-3.48.65-6.86,1.59c-1.29.35-2.57.74-3.83,1.16A81.33,81.33,0,0,0,84,42c-1.21.56-2.41,1.15-3.59,1.78A83.49,83.49,0,0,0,68.61,51.3c-1.07.81-2.11,1.64-3.14,2.51A85,85,0,1,0,180.15,59ZM70.29,133c-11.65,0-21.1-11.41-21.1-25.5a30.74,30.74,0,0,1,.33-4.55,31.38,31.38,0,0,1,.68-3.26,30.18,30.18,0,0,1,1.49-4.23C55.24,87.45,62.24,82,70.29,82S85.35,87.45,88.9,95.46a30.18,30.18,0,0,1,1.49,4.23,29,29,0,0,1,.67,3.26,30.73,30.73,0,0,1,.34,4.55C91.4,121.59,81.94,133,70.29,133ZM120,107c-13.25,0-24-13-24-29a34.94,34.94,0,0,1,.38-5.17,33.38,33.38,0,0,1,2.46-8.52c4-9.11,12-15.31,21.16-15.31s17.12,6.2,21.16,15.31a33.38,33.38,0,0,1,2.46,8.52A34.94,34.94,0,0,1,144,78C144,94,133.25,107,120,107Zm49.71,26c-11.65,0-21.11-11.41-21.11-25.5a30.73,30.73,0,0,1,.34-4.55,29,29,0,0,1,.67-3.26,30.18,30.18,0,0,1,1.49-4.23c3.55-8,10.55-13.46,18.61-13.46s15,5.45,18.6,13.46a30.18,30.18,0,0,1,1.49,4.23,31.38,31.38,0,0,1,.68,3.26,30.74,30.74,0,0,1,.33,4.55C190.81,121.59,181.36,133,169.71,133Z"/></g><g id="Eyes"><path class="cls-2" d="M144,78c0,16-10.75,29-24,29S96,94,96,78a34.94,34.94,0,0,1,.38-5.17,33.38,33.38,0,0,1,2.46-8.52c4-9.11,12-15.31,21.16-15.31s17.12,6.2,21.16,15.31a33.38,33.38,0,0,1,2.46,8.52A34.94,34.94,0,0,1,144,78Z"/><circle class="cls-3" cx="120" cy="78" r="8"/><path class="cls-4" d="M142.85,69.12A63.61,63.61,0,0,1,126,72.75c-2,.16-4,.25-6,.25s-4.06-.09-6-.25a63.61,63.61,0,0,1-16.82-3.63,33.72,33.72,0,0,1,1.69-4.81c4-9.11,12-15.31,21.16-15.31s17.12,6.2,21.16,15.31A33.72,33.72,0,0,1,142.85,69.12Z"/><path class="cls-2" d="M91.4,107.5c0,14.09-9.46,25.5-21.11,25.5s-21.1-11.41-21.1-25.5a30.74,30.74,0,0,1,.33-4.55,31.38,31.38,0,0,1,.68-3.26,30.18,30.18,0,0,1,1.49-4.23C55.24,87.45,62.24,82,70.29,82S85.35,87.45,88.9,95.46a30.18,30.18,0,0,1,1.49,4.23,29,29,0,0,1,.67,3.26A30.73,30.73,0,0,1,91.4,107.5Z"/><circle class="cls-3" cx="70.29" cy="107.5" r="7.03"/><path class="cls-4" d="M90.39,99.69a55.23,55.23,0,0,1-14.8,3.19c-1.73.15-3.5.22-5.3.22s-3.57-.07-5.29-.22a55.23,55.23,0,0,1-14.8-3.19,30.18,30.18,0,0,1,1.49-4.23C55.24,87.45,62.24,82,70.29,82S85.35,87.45,88.9,95.46A30.18,30.18,0,0,1,90.39,99.69Z"/><path class="cls-2" d="M190.81,107.5c0,14.09-9.45,25.5-21.1,25.5s-21.11-11.41-21.11-25.5a30.73,30.73,0,0,1,.34-4.55,29,29,0,0,1,.67-3.26,30.18,30.18,0,0,1,1.49-4.23c3.55-8,10.55-13.46,18.61-13.46s15,5.45,18.6,13.46a30.18,30.18,0,0,1,1.49,4.23,31.38,31.38,0,0,1,.68,3.26A30.74,30.74,0,0,1,190.81,107.5Z"/><circle class="cls-3" cx="169.71" cy="107.5" r="7.03"/><path class="cls-4" d="M189.8,99.69a55.23,55.23,0,0,1-14.8,3.19c-1.72.15-3.49.22-5.29.22s-3.57-.07-5.3-.22a55.23,55.23,0,0,1-14.8-3.19,30.18,30.18,0,0,1,1.49-4.23c3.55-8,10.55-13.46,18.61-13.46s15,5.45,18.6,13.46A30.18,30.18,0,0,1,189.8,99.69Z"/></g><path id="Mouth" class="cls-3" d="M146.5,165.5c0,5.8-11.86,10.5-26.5,10.5s-26.5-4.7-26.5-10.5c0-2.53,2.25-4.84,6-6.65a34.94,34.94,0,0,1,8-2.61c1-.2,2-.39,3-.54a62,62,0,0,1,7.86-.68l1.63,0,1.63,0a62,62,0,0,1,7.86.68c1,.15,2,.34,3,.54a34.94,34.94,0,0,1,8,2.61C144.25,160.66,146.5,163,146.5,165.5Z"/><g id="Teeth"><path class="cls-2" d="M118.5,156v7a4,4,0,0,1-8,0v-7c0-.1,0-.2,0-.3a62,62,0,0,1,7.86-.68A3.51,3.51,0,0,1,118.5,156Z"/><path class="cls-2" d="M107.5,156.24V163a4,4,0,0,1-8,0v-4.15A34.94,34.94,0,0,1,107.5,156.24Z"/><path class="cls-2" d="M129.5,156v7a4,4,0,0,1-8,0v-7a3.51,3.51,0,0,1,.13-1,62,62,0,0,1,7.86.68C129.5,155.8,129.5,155.9,129.5,156Z"/><path class="cls-2" d="M140.5,158.85V163a4,4,0,0,1-8,0v-6.76A34.94,34.94,0,0,1,140.5,158.85Z"/></g><g id="Nose"><circle class="cls-3" cx="112.5" cy="145.5" r="4.5"/><circle class="cls-3" cx="127.5" cy="145.5" r="4.5"/></g><g id="Hair"><path class="cls-4" d="M108.09,34.83c-1.33.18-2.64.4-4,.66l-1-6.07a2,2,0,0,1,1.63-2.31,2,2,0,0,1,.34,0,2,2,0,0,1,2,1.66Z"/><path class="cls-4" d="M119.67,27a1.93,1.93,0,0,1,0,.24L118.83,34c-1.36,0-2.71.06-4,.14l.91-7.36a2,2,0,0,1,4,.24Z"/><path class="cls-4" d="M97.28,37.08c-1.29.35-2.57.74-3.83,1.16L92.31,35a2,2,0,0,1,1.24-2.55,2.06,2.06,0,0,1,.65-.11,2,2,0,0,1,1.89,1.35Z"/><path class="cls-4" d="M84,42c-1.21.56-2.41,1.15-3.59,1.78l-2.9-5A2,2,0,0,1,78.25,36a2,2,0,0,1,1-.27,2,2,0,0,1,1.74,1Z"/><path class="cls-4" d="M68.61,51.3c-1.07.81-2.11,1.64-3.14,2.51l-3.12-4.87a2,2,0,0,1,3.37-2.15Z"/><path class="cls-4" d="M135,29.09a2.31,2.31,0,0,1,0,.37l-1.07,5.68c-1.31-.22-2.63-.41-4-.56l1.1-5.85a2,2,0,0,1,4,.36Z"/><path class="cls-4" d="M155.21,38.14a2.18,2.18,0,0,1-.05.43l-.62,2.75c-1.23-.55-2.49-1.08-3.75-1.56l.47-2.07a2,2,0,0,1,4,.45Z"/><path class="cls-4" d="M169.44,43.19a1.93,1.93,0,0,1-.07.53L168,48.84c-1.15-.79-2.32-1.56-3.52-2.29l1-3.88a2,2,0,0,1,3.93.52Z"/><path class="cls-4" d="M183.09,51.41a2,2,0,0,1-.15.76L180.15,59q-1.5-1.53-3.11-3l2.2-5.35a2,2,0,0,1,3.85.76Z"/></g><g id="Neck"><path class="cls-4" d="M173.64,240H66.36l0-.11a2.46,2.46,0,0,1,.07-.29c.05-.22.12-.44.19-.65s.14-.36.22-.54a2.64,2.64,0,0,1,.18-.38,6.61,6.61,0,0,1,.62-1l.16-.21c.13-.17.28-.34.43-.5a218.19,218.19,0,0,0,19.82-38.51,85.14,85.14,0,0,0,63.84,0,218.19,218.19,0,0,0,19.82,38.51c.15.16.3.33.43.5l.16.21a6.61,6.61,0,0,1,.62,1,2.64,2.64,0,0,1,.18.38c.08.18.15.36.22.54s.14.43.19.65a2.46,2.46,0,0,1,.07.29Z"/></g><g id="Glass" class="cls-5"><path class="cls-6" d="M226,120a106,106,0,0,1-60.42,95.73c-.75.36-1.51.71-2.27,1.05s-1.53.67-2.31,1a106.24,106.24,0,0,1-82,0q-1.17-.48-2.31-1c-.76-.34-1.52-.69-2.27-1.05A106,106,0,1,1,226,120Z"/></g><g id="Space_suit" data-name="Space suit"><path class="cls-7" d="M228.5,120A108.5,108.5,0,1,0,73.29,217.92a169.88,169.88,0,0,1-9,15.28,12.82,12.82,0,0,0-3,6.8H178.72a12.82,12.82,0,0,0-3-6.8,169.88,169.88,0,0,1-9-15.28A108.63,108.63,0,0,0,228.5,120ZM120,223.5A103.5,103.5,0,1,1,223.5,120,103.62,103.62,0,0,1,120,223.5Z"/></g></svg>