<svg xmlns="http://www.w3.org/2000/svg" viewBox="0 0 240 240"><defs><style>.cls-1{fill:#b2ccd3;}.cls-2{fill:#394244;}.cls-3{fill:#93acb2;}</style></defs><g id="Alien_8" data-name="Alien 8"><rect id="Head" class="cls-1" x="43" y="78" width="160" height="96" rx="3.55"/><circle class="cls-2" cx="123" cy="145" r="16"/><circle class="cls-3" cx="123" cy="145" r="12"/><circle class="cls-2" cx="123" cy="145" r="8"/><g id="Antenna"><polygon class="cls-2" points="124.5 27 121.5 27 113.5 84 132.5 84 124.5 27"/><rect class="cls-3" x="111" y="54.5" width="24" height="8" rx="2.87"/><rect class="cls-3" x="111" y="43" width="24" height="8" rx="2.87"/><rect class="cls-3" x="111" y="66" width="24" height="8" rx="2.87"/><circle class="cls-2" cx="123" cy="27" r="9"/></g><g id="Eyes"><rect class="cls-2" x="75" y="97" width="96" height="16" rx="3.31"/><rect class="cls-3" x="86.25" y="100.75" width="16" height="8" rx="2.92"/><rect class="cls-3" x="143.75" y="101.25" width="16" height="8" rx="2.92"/></g><g id="Neck"><path class="cls-3" d="M91,173.5h64a0,0,0,0,1,0,0v8.92a3.08,3.08,0,0,1-3.08,3.08H94.08A3.08,3.08,0,0,1,91,182.42V173.5A0,0,0,0,1,91,173.5Z"/><rect class="cls-1" x="96" y="185" width="54" height="8"/><path class="cls-3" d="M93.65,192.5h58.7a2.65,2.65,0,0,1,2.65,2.65v9.35a0,0,0,0,1,0,0H91a0,0,0,0,1,0,0v-9.35A2.65,2.65,0,0,1,93.65,192.5Z"/></g><path id="Body" class="cls-3" d="M26.13,204H219.87a3.13,3.13,0,0,1,3.13,3.13V240a0,0,0,0,1,0,0H23a0,0,0,0,1,0,0V207.13A3.13,3.13,0,0,1,26.13,204Z"/></g></svg>