<svg xmlns="http://www.w3.org/2000/svg" viewBox="0 0 240 240"><defs><style>.cls-1{fill:#c3eae9;}.cls-2{fill:#5f8943;}.cls-3{fill:#476336;}.cls-4{fill:#e2e8dd;}.cls-5{fill:#30352a;}</style></defs><g id="Alien_10" data-name="Alien 10"><g id="Background-7" data-name="Background"><rect class="cls-1" width="240" height="240"/></g><path id="Face" class="cls-2" d="M147,157.64v.72a3.64,3.64,0,0,0,3.64,3.64h36.72a3.64,3.64,0,0,1,3.64,3.64v20.72a3.64,3.64,0,0,1-3.64,3.64H150.64a3.64,3.64,0,0,0-3.64,3.64V240H93V193.64A3.64,3.64,0,0,0,89.36,190H53.64A3.64,3.64,0,0,1,50,186.36V165.64A3.64,3.64,0,0,1,53.64,162H89.36A3.64,3.64,0,0,0,93,158.36v-.72A3.64,3.64,0,0,0,89.36,154H48.64A3.64,3.64,0,0,1,45,150.36V129.64A3.64,3.64,0,0,1,48.64,126H89.36A3.64,3.64,0,0,0,93,122.36v-2.72A3.64,3.64,0,0,0,89.36,116H56.64A3.64,3.64,0,0,1,53,112.36V91.64A3.64,3.64,0,0,1,56.64,88H89.36A3.64,3.64,0,0,0,93,84.36V81.64A3.64,3.64,0,0,0,89.36,78H53.64A3.64,3.64,0,0,1,50,74.36V53.64A3.64,3.64,0,0,1,53.64,50H89.36A3.64,3.64,0,0,0,93,46.36V43.64A3.64,3.64,0,0,1,96.64,40h46.72A3.64,3.64,0,0,1,147,43.64v2.72A3.64,3.64,0,0,0,150.64,50h36.72A3.64,3.64,0,0,1,191,53.64V74.36A3.64,3.64,0,0,1,187.36,78H150.64A3.64,3.64,0,0,0,147,81.64v2.72A3.64,3.64,0,0,0,150.64,88h33.72A3.64,3.64,0,0,1,188,91.64v20.72a3.64,3.64,0,0,1-3.64,3.64H150.64a3.64,3.64,0,0,0-3.64,3.64v2.72a3.64,3.64,0,0,0,3.64,3.64h41.72a3.64,3.64,0,0,1,3.64,3.64v20.72a3.64,3.64,0,0,1-3.64,3.64H150.64A3.64,3.64,0,0,0,147,157.64Z"/><g id="Eyes"><g id="Eye"><circle class="cls-3" cx="66" cy="64" r="11"/><circle class="cls-4" cx="66" cy="64" r="8.7"/><circle class="cls-5" cx="67" cy="65" r="4.7"/></g><circle class="cls-3" cx="71.47" cy="101.77" r="9.47"/><circle class="cls-4" cx="71.47" cy="101.77" r="7.5"/><circle class="cls-5" cx="73.34" cy="101.63" r="4.05"/><circle class="cls-3" cx="59.95" cy="140.3" r="12.05"/><circle class="cls-4" cx="59.95" cy="140.3" r="9.54"/><circle class="cls-5" cx="59.04" cy="141.39" r="5.15"/><circle class="cls-3" cx="76.95" cy="176.3" r="11"/><circle class="cls-4" cx="76.95" cy="176.3" r="8.7"/><circle class="cls-5" cx="77.95" cy="178.3" r="4.7"/><circle class="cls-3" cx="174.95" cy="63.3" r="11"/><circle class="cls-4" cx="174.95" cy="63.3" r="8.7"/><circle class="cls-5" cx="176.95" cy="64.3" r="4.7"/><circle class="cls-3" cx="167.95" cy="102.3" r="8.95"/><circle class="cls-4" cx="167.95" cy="102.3" r="7.08"/><circle class="cls-5" cx="166.76" cy="100.11" r="3.83"/><circle class="cls-3" cx="180.95" cy="140.3" r="12.7"/><circle class="cls-4" cx="180.95" cy="140.3" r="10.05"/><circle class="cls-5" cx="183.1" cy="141.45" r="5.43"/><circle class="cls-3" cx="170.95" cy="176.3" r="11"/><circle class="cls-4" cx="170.95" cy="176.3" r="8.7"/><circle class="cls-5" cx="169.95" cy="178.3" r="4.7"/></g><path id="Nose" class="cls-3" d="M116.44,49.1h8.12c1.93,0,4.47,1.6,4.39,3.52-.19,4.7-3.37,73.09-3.56,95.55,0,3.78-1.11,6.83-4.89,6.83h0c-3.78,0-4.86-3.05-4.89-6.83-.19-22.46-3.37-90.85-3.56-95.55C112,50.7,114.51,49.1,116.44,49.1Z"/><path id="Mouth" class="cls-3" d="M108.72,171a2.87,2.87,0,0,0-2.8,3.54,15,15,0,0,0,29.16,0,2.87,2.87,0,0,0-2.8-3.54Z"/></g></svg>