<svg xmlns="http://www.w3.org/2000/svg" viewBox="0 0 240 240"><defs><style>.cls-1{fill:#e1edef;}.cls-2{fill:#ddc657;}.cls-3{fill:#c6af4f;}.cls-4{fill:#efebdc;}.cls-5{fill:#323c3d;}</style></defs><g id="Alien_12" data-name="Alien 12"><g id="Background-9" data-name="Background"><rect class="cls-1" width="240" height="240"/></g><path id="Body" class="cls-2" d="M197,139.09c-8.25-21.6-23.28-40.68-37-52.74C145.91,74,133.13,68.73,120,68.5c-13.13.23-25.91,5.52-40,17.85-13.7,12.06-28.73,31.14-37,52.74s-6.43,38.74,7.63,48.8c13.63,10.33,39.54,13.63,69.37,13.92,29.83-.29,55.74-3.59,69.37-13.92C203.43,177.83,205.21,160.75,197,139.09Z"/><g id="Eye_center" data-name="Eye center"><ellipse class="cls-3" cx="120" cy="117.09" rx="26" ry="38"/><ellipse class="cls-4" cx="120" cy="117.09" rx="23.07" ry="33.71"/><circle class="cls-5" cx="120" cy="126.09" r="12"/></g><g id="Mouth"><path class="cls-5" d="M174,168.09c0,11-2,15.3-2,15.3a2,2,0,0,1-1.68,2l-2.51.44L161.42,187l-3,.52h0l-8,1.41-.94.16-6.33,1.12-3.42.6-2.94.52c-1.61.28-3.22.52-4.83.7a.15.15,0,0,1-.09,0q-3.78.45-7.59.54c-.51,0-1,0-1.55,0a83.53,83.53,0,0,1-9.22-.4c-.67-.07-1.33-.14-2-.23q-3.18-.39-6.35-1l-1.67-.34h0l-.46-.09L95.57,189l-2.9-.58h0l-5.23-1-.83-.16-7.72-1.55-1.36-.27a2,2,0,0,1-1.62-1.85S73,181.09,73,171.09s1.2-13,1.2-13a2,2,0,0,1,2.68-2.06l4.35,1.48,7.5,2.56,3.57,1.22,7.52,2.56,3.4,1.16.91.31a42.78,42.78,0,0,0,6.15,1.6c1,.19,2,.34,3,.45a41.46,41.46,0,0,0,5.23.27,40.66,40.66,0,0,0,5-.34A42.58,42.58,0,0,0,130,166c.64-.18,1.27-.37,1.9-.58l.85-.28,6.49-2.17,4.26-1.42,7.07-2.36,1.93-.64,8.9-3,7.93-2.65a2,2,0,0,1,2.67,1.93S174,157.09,174,168.09Z"/><polygon class="cls-4" points="81.23 157.55 88.73 160.11 85 165.09 81.23 157.55"/><polygon class="cls-4" points="92.3 161.33 99.82 163.89 95 170.09 92.3 161.33"/><path class="cls-4" d="M104.13,165.36a42.78,42.78,0,0,0,6.15,1.6L106,174.09l-2.78-9Z"/><path class="cls-4" d="M113.33,167.41a41.46,41.46,0,0,0,5.23.27L116,174.09Z"/><path class="cls-4" d="M123.61,167.34A42.58,42.58,0,0,0,130,166v7.05Z"/><polygon class="cls-4" points="132.75 165.18 139.24 163.01 138 171.09 132.75 165.18"/><polygon class="cls-4" points="143.5 161.59 150.57 159.23 149 167.09 143.5 161.59"/><polygon class="cls-4" points="161.4 155.63 160 166.09 152.5 158.59 161.4 155.63"/><polygon class="cls-4" points="82 177.09 86.6 187.21 78.88 185.66 82 177.09"/><polygon class="cls-4" points="90 183.09 92.66 188.42 87.43 187.37 90 183.09"/><polygon class="cls-4" points="100 183.09 103.08 190.5 95.57 189 100 183.09"/><path class="cls-4" d="M107,185.09l4.57,6.86q-3.18-.39-6.35-1l-1.67-.34Z"/><path class="cls-4" d="M116,184.09l6.79,8.49a83.53,83.53,0,0,1-9.22-.4Z"/><path class="cls-4" d="M126,185.09l5.93,6.92q-3.78.45-7.59.54Z"/><path class="cls-4" d="M134,182.09l5.79,8.68-2.94.52c-1.61.28-3.22.52-4.83.7Z"/><polygon class="cls-4" points="146 181.09 149.54 189.05 143.21 190.17 146 181.09"/><polygon class="cls-4" points="154 180.09 158.43 187.48 150.48 188.89 154 180.09"/><polygon class="cls-4" points="167.81 185.83 161.42 186.96 165 179.09 167.81 185.83"/></g><g id="Eye_left" data-name="Eye left"><polygon class="cls-2" points="69.99 52.71 60.04 53.7 62.22 115.79 80.13 114 69.99 52.71"/><path class="cls-2" d="M83.22,54.4a18,18,0,1,0-10,17.95A18,18,0,0,0,83.22,54.4ZM64.12,44.3A11.94,11.94,0,0,1,75.2,49.49a79.5,79.5,0,0,1-9.89.6,79.5,79.5,0,0,1-9.89-.6A11.93,11.93,0,0,1,64.12,44.3Z"/><path class="cls-3" d="M80.18,54.71a14.95,14.95,0,0,0-28-5.72,14.95,14.95,0,1,0,28,5.72ZM64.12,44.3A11.94,11.94,0,0,1,75.2,49.49a79.5,79.5,0,0,1-9.89.6,79.5,79.5,0,0,1-9.89-.6A11.93,11.93,0,0,1,64.12,44.3Z"/><path class="cls-4" d="M72.18,66A11.95,11.95,0,0,1,55.42,49.49a79.5,79.5,0,0,0,9.89.6,79.5,79.5,0,0,0,9.89-.6,11.94,11.94,0,0,1-3,16.48Z"/><circle class="cls-5" cx="66.61" cy="59.17" r="5"/><path class="cls-3" d="M75.2,49.49a79.5,79.5,0,0,1-9.89.6,79.5,79.5,0,0,1-9.89-.6,11.94,11.94,0,0,1,19.78,0Z"/></g><g id="Eye_right" data-name="Eye right"><polygon class="cls-2" points="180 53.81 170.07 52.67 159.01 113.81 176.89 115.86 180 53.81"/><path class="cls-2" d="M190.86,48.31a18,18,0,0,0-32.33,0,17.62,17.62,0,0,0-1.72,5.86,18,18,0,0,0,15.82,19.94A17.78,17.78,0,0,0,179,73.7a18,18,0,0,0,11.86-25.39Zm-14.8-4a11.91,11.91,0,0,1,8.5,5.13,79.17,79.17,0,0,1-9.87.6,77.25,77.25,0,0,1-9.86-.6A11.9,11.9,0,0,1,176.06,44.36Z"/><path class="cls-3" d="M187.77,49a15,15,0,0,0-26.16,0,14.73,14.73,0,0,0-1.77,5.53A15,15,0,0,0,167.1,69.1a14.94,14.94,0,0,0,12.06,1.38A14.94,14.94,0,0,0,187.77,49Zm-11.71-4.63a11.91,11.91,0,0,1,8.5,5.13,79.17,79.17,0,0,1-9.87.6,77.25,77.25,0,0,1-9.86-.6A11.9,11.9,0,0,1,176.06,44.36Z"/><path class="cls-4" d="M186.56,57.59a11.94,11.94,0,0,1-7.23,9.64,11.93,11.93,0,0,1-11.65-1.34,11.92,11.92,0,0,1-4.86-11,11.78,11.78,0,0,1,2-5.37,77.25,77.25,0,0,0,9.86.6,79.17,79.17,0,0,0,9.87-.6A11.93,11.93,0,0,1,186.56,57.59Z"/><circle class="cls-5" cx="173.35" cy="59.2" r="5"/><path class="cls-3" d="M184.56,49.49a79.17,79.17,0,0,1-9.87.6,77.25,77.25,0,0,1-9.86-.6,11.95,11.95,0,0,1,19.73,0Z"/></g></g></svg>