<svg xmlns="http://www.w3.org/2000/svg" viewBox="0 0 240 240"><defs><style>.cls-1{fill:#93acb2;}.cls-2{fill:#7ae2e2;}.cls-3{fill:#e84ef9;opacity:0.27;}.cls-4{fill:#745cea;}.cls-5{fill:#5c50ad;}.cls-6{fill:#4d4799;}.cls-7{fill:#ddcb6f;}.cls-8{fill:#a5db71;}.cls-9{fill:#53327a;}.cls-10{fill:#e7e4ed;}.cls-11{fill:#3e3a49;}</style></defs><g id="Alien_9" data-name="Alien 9"><g id="Background-6" data-name="Background"><rect class="cls-1" width="240" height="240"/></g><path id="Glass" class="cls-2" d="M188,139.8a67.74,67.74,0,0,1-4.58,24.58,66.27,66.27,0,0,1-4,8.52,67.22,67.22,0,0,1-5.87,8.82c-14.76,3.18-33.35,5.08-53.54,5.08s-38.78-1.9-53.54-5.08a67.22,67.22,0,0,1-5.87-8.82,66.27,66.27,0,0,1-4-8.52A68,68,0,1,1,188,139.8Z"/><g id="Ship"><ellipse class="cls-3" cx="120" cy="171.8" rx="80.65" ry="15"/><path class="cls-4" d="M207,162.8c0,3.19-2.26,6.23-6.35,9a36.27,36.27,0,0,0-4.11-2.4l-.67-.34c-.78-.38-1.6-.76-2.45-1.13-1.57-.68-3.26-1.34-5.06-2-.34-.13-.69-.25-1-.36-1.21-.41-2.46-.81-3.76-1.19l-1.76-.51c-1.29-.36-2.63-.7-4-1l-1.78-.43-.52-.12q-1.83-.42-3.75-.81l-.21,0-2.18-.43c-1-.2-2.1-.39-3.17-.57-.69-.13-1.39-.25-2.09-.36l-3.38-.52c-.74-.11-1.48-.22-2.23-.31-2.49-.35-5.05-.65-7.67-.92h0l-.63-.07-1.59-.16c-.76-.08-1.53-.15-2.3-.21l-1.39-.12-2.57-.2-2.45-.17-3-.18-2.75-.13-1.82-.08-1.79-.06-2-.06c-.79,0-1.57,0-2.37-.06l-2.81,0-3.4,0-3.4,0-2.81,0c-.8,0-1.58,0-2.37.06l-2,.06-1.79.06-1.82.08-2.75.13-3,.18-2.45.17-2.57.2-1.39.12c-.77.06-1.54.13-2.3.21l-1.59.16-.63.07h0c-2.62.27-5.18.57-7.67.92-.74.09-1.48.2-2.22.31-1.15.16-2.27.34-3.39.52-.7.11-1.4.23-2.09.36-1.07.18-2.13.37-3.17.57l-2.18.43-.21,0q-1.92.39-3.75.81l-.52.12-1.78.43c-1.37.34-2.71.68-4,1l-1.76.51c-1.3.38-2.55.78-3.76,1.19-.35.11-.7.23-1,.36-1.8.62-3.49,1.28-5.06,2-.85.37-1.67.75-2.45,1.13l-.67.34a36.27,36.27,0,0,0-4.11,2.4C35.26,169,33,166,33,162.8c0-9.38,19.54-17.51,48-21.45a286.38,286.38,0,0,1,39-2.55,286.38,286.38,0,0,1,39,2.55C187.46,145.29,207,153.42,207,162.8Z"/><path class="cls-5" d="M200.65,171.8c-5.77,3.93-15.19,7.34-27.11,9.92-14.76,3.18-33.35,5.08-53.54,5.08s-38.78-1.9-53.54-5.08c-11.92-2.58-21.34-6-27.11-9.92a36.27,36.27,0,0,1,4.11-2.4l.67-.34c.78-.38,1.6-.76,2.45-1.13a91.06,91.06,0,0,0,14,5c15.55,4.28,36.44,6.9,59.41,6.9s43.86-2.62,59.41-6.9a91.06,91.06,0,0,0,14-5c.85.37,1.67.75,2.45,1.13l.67.34A36.27,36.27,0,0,1,200.65,171.8Z"/><path class="cls-6" d="M193.42,167.93C178,175.07,150.87,179.8,120,179.8s-58-4.73-73.42-11.87c1.57-.68,3.26-1.34,5.06-2,.34-.13.69-.25,1-.36,1.21-.41,2.46-.81,3.76-1.19l1.76-.51c1.29-.36,2.63-.7,4-1l1.78-.43.52-.12q1.83-.42,3.75-.81l.21,0,2.18-.43c1-.2,2.1-.39,3.17-.57.69-.13,1.39-.25,2.09-.36,1.12-.18,2.24-.36,3.39-.52.74-.11,1.48-.22,2.22-.31,2.49-.35,5-.65,7.67-.92h0l.63-.07,1.59-.16c.76-.08,1.53-.15,2.3-.21l1.39-.12,2.57-.2,2.45-.17,3-.18,2.75-.13,1.82-.08,1.79-.06,2-.06c.79,0,1.57,0,2.37-.06l2.81,0,3.4,0,3.4,0,2.81,0c.8,0,1.58,0,2.37.06l2,.06,1.79.06,1.82.08,2.75.13,3,.18,2.45.17,2.57.2,1.39.12c.77.06,1.54.13,2.3.21l1.59.16.63.07h0c2.62.27,5.18.57,7.67.92.75.09,1.49.2,2.23.31l3.38.52c.7.11,1.4.23,2.09.36,1.07.18,2.13.37,3.17.57l2.18.43.21,0q1.92.39,3.75.81l.52.12,1.78.43c1.37.34,2.71.68,4,1l1.76.51c1.3.38,2.55.78,3.76,1.19.35.11.7.23,1,.36C190.16,166.59,191.85,167.25,193.42,167.93Z"/></g><g id="Lights"><circle class="cls-7" cx="120" cy="147.64" r="4"/><circle class="cls-7" cx="70.67" cy="152.64" r="4"/><circle class="cls-8" cx="47.5" cy="159.8" r="4"/><circle class="cls-8" cx="192.5" cy="157.97" r="4"/><circle class="cls-8" cx="95.83" cy="148.64" r="4"/><circle class="cls-8" cx="144.17" cy="148.64" r="4"/><circle class="cls-7" cx="169.33" cy="152.64" r="4"/></g><circle id="Ship_bump" data-name="Ship bump" class="cls-2" cx="120" cy="73.8" r="8"/><path id="Ship_antenna" data-name="Ship antenna" class="cls-6" d="M119.37,53.73a.64.64,0,0,1,1.26,0l.72,4.57,1.24,7.77a.64.64,0,0,1-.63.73H118a.64.64,0,0,1-.63-.73l1.24-7.77Z"/><path id="Face" class="cls-9" d="M159,141.35a286.38,286.38,0,0,0-39-2.55,286.38,286.38,0,0,0-39,2.55c.34-14.7,17.67-26.55,39-26.55S158.65,126.65,159,141.35Z"/><g id="Eyes"><circle class="cls-9" cx="151.47" cy="122.65" r="12"/><circle class="cls-10" cx="151.47" cy="122.65" r="9.16"/><circle class="cls-11" cx="151.47" cy="122.65" r="6"/><circle class="cls-9" cx="88.53" cy="122.65" r="12"/><circle class="cls-10" cx="88.53" cy="122.65" r="9.16"/><circle class="cls-11" cx="88.53" cy="122.65" r="6"/></g><g id="Face-2" data-name="Face"><ellipse class="cls-9" cx="120" cy="116.8" rx="7" ry="6"/><ellipse class="cls-9" cx="120" cy="111.3" rx="2" ry="7.5"/><circle class="cls-9" cx="120" cy="104.8" r="3"/></g></g></svg>