<svg xmlns="http://www.w3.org/2000/svg" viewBox="0 0 240 240"><defs><style>.cls-1{fill:#f4d6cc;}.cls-2{fill:#5e4d60;}.cls-3,.cls-5{fill:none;stroke:#5e4d60;stroke-miterlimit:10;}.cls-3{stroke-linecap:round;stroke-width:20px;}.cls-4{fill:#eee6ef;}.cls-5{stroke-width:17px;}.cls-6{fill:#403642;}</style></defs><g id="Alien_2" data-name="Alien 2"><g id="Background"><rect class="cls-1" width="240" height="240"/></g><path id="Body" class="cls-2" d="M203.5,240c0-42.8-37.38-77.5-83.5-77.5S36.5,197.2,36.5,240"/><g id="Eye_neck_middle" data-name="Eye + neck middle"><path id="Neck" class="cls-3" d="M121,44.16s.55,6.11-2.25,15c-3.32,10.58-7.14,25.38-8,39.46-1.54,26,11,33.71,8.85,70.65s-4.41,23.78-4.41,23.78"/><g id="Eye"><path class="cls-2" d="M160,43c0,13.81-18.36,25-41,25S78,56.81,78,43a16.84,16.84,0,0,1,2.89-9.24C86.92,24.53,101.71,18,119,18s32.08,6.53,38.11,15.76A16.84,16.84,0,0,1,160,43Z"/><ellipse class="cls-4" cx="119" cy="43" rx="36" ry="21.4"/><path class="cls-2" d="M157.11,33.76C145.46,34.56,132.57,35,119,35s-26.46-.44-38.11-1.24C86.92,24.53,101.71,18,119,18S151.08,24.53,157.11,33.76Z"/><ellipse class="cls-2" cx="119" cy="43" rx="17" ry="14"/></g></g><g id="Eye_neck_right" data-name="Eye + neck right"><path id="Neck-2" data-name="Neck" class="cls-3" d="M180,99s11,24,8,52-39,64-39,64"/><g id="Eye-2" data-name="Eye"><path class="cls-2" d="M219.71,89.28c3.2,13.44-12.07,28.58-34.1,33.82s-42.47-1.39-45.67-14.83a16.75,16.75,0,0,1,.67-9.65c3.73-10.38,16.6-20.16,33.42-24.16s32.72-1.08,40.73,6.5A16.94,16.94,0,0,1,219.71,89.28Z"/><ellipse class="cls-4" cx="179.82" cy="98.78" rx="36" ry="21.4" transform="translate(-17.99 44.33) rotate(-13.39)"/><path class="cls-2" d="M214.76,81c-11.15,3.48-23.59,6.89-36.79,10s-25.84,5.7-37.36,7.62c3.73-10.38,16.6-20.16,33.42-24.16S206.75,73.38,214.76,81Z"/><ellipse class="cls-2" cx="179.82" cy="98.78" rx="17" ry="14" transform="translate(-17.99 44.33) rotate(-13.39)"/></g></g><g id="Eye_neck_left" data-name="Eye + neck left"><path id="Neck-3" data-name="Neck" class="cls-5" d="M58.09,77.84s-8.19,40.91-6.53,78.37,9.34,52.64,9.34,52.64"/><g id="Eye-3" data-name="Eye"><path class="cls-2" d="M93.81,86.83c-1.26,12.26-18.58,20.52-38.68,18.45S19.75,91.6,21,79.35a15,15,0,0,1,3.4-7.94c6.2-7.65,19.93-12.09,35.27-10.51s27.89,8.72,32.4,17.47A15,15,0,0,1,93.81,86.83Z"/><ellipse class="cls-4" cx="57.41" cy="83.09" rx="19.09" ry="32.13" transform="translate(-31.11 131.7) rotate(-84.13)"/><path class="cls-2" d="M92.09,78.37C81.67,78,70.19,77.23,58.14,76s-23.45-2.81-33.72-4.58c6.2-7.65,19.93-12.09,35.27-10.51S87.58,69.62,92.09,78.37Z"/><ellipse class="cls-2" cx="57.41" cy="83.09" rx="12.49" ry="15.17" transform="translate(-31.11 131.7) rotate(-84.13)"/></g></g><path id="Mouth" class="cls-6" d="M80.16,196l80,2.05c1.37,0,2.44,1.08,3.08,2.59a9,9,0,0,1-.33,7.43,31.71,31.71,0,0,1-10.73,11.06c-.82.54-1.65,1-2.52,1.53a55,55,0,0,1-18.27,6.08c-1.61.26-3.25.46-4.93.59a69.35,69.35,0,0,1-7.1.19,66.29,66.29,0,0,1-13.32-1.69c-.61-.13-1.22-.29-1.82-.44A51.12,51.12,0,0,1,86,216.67a35.4,35.4,0,0,1-4.72-4.37,27.51,27.51,0,0,1-4.53-6.76C74.92,201.57,77,195.9,80.16,196Z"/></g></svg>