<svg xmlns="http://www.w3.org/2000/svg" viewBox="0 0 240 240"><defs><style>.cls-1{fill:#62af83;}.cls-2{fill:#427055;}.cls-3{fill:#d9e8df;}.cls-4{fill:#363f39;}</style></defs><g id="Alien_7" data-name="Alien 7"><path id="Body" class="cls-1" d="M211,154a28.86,28.86,0,0,1-8.25,20.26,15.27,15.27,0,0,0-3.82,6.57,29,29,0,0,1-44,16.32,11.21,11.21,0,0,0-9.47-1.4,29.25,29.25,0,0,1-15,.5,12,12,0,0,0-10.79,3.09A29,29,0,0,1,83.76,202a15.43,15.43,0,0,0-14.6-1.25,29,29,0,0,1-33.57-45.19A18.19,18.19,0,0,0,39.11,149c.12-.43.26-.87.4-1.3a17.17,17.17,0,0,0-1.79-14.87A29,29,0,0,1,39.1,99.21,11.85,11.85,0,0,0,41.44,94,29,29,0,0,1,85.35,74.39a13,13,0,0,0,11.15,1.2,29.12,29.12,0,0,1,18-.31,11.3,11.3,0,0,0,9.25-1,29.09,29.09,0,0,1,25.39-2.48,12.78,12.78,0,0,0,11-.78A29,29,0,0,1,202,106.51a14,14,0,0,0-.28,9.09A28.79,28.79,0,0,1,203,124c0,.87,0,1.72-.11,2.57a16.17,16.17,0,0,0,2.84,10.75A28.89,28.89,0,0,1,211,154Z"/><g id="Eye_left" data-name="Eye left"><circle class="cls-2" cx="85.5" cy="115" r="30"/><circle class="cls-3" cx="85.5" cy="115" r="24"/><circle class="cls-4" cx="93.5" cy="120" r="9"/></g><g id="Eye_right" data-name="Eye right"><circle class="cls-2" cx="154.5" cy="122" r="30"/><circle class="cls-3" cx="154.5" cy="122" r="24"/><circle class="cls-4" cx="146.5" cy="127" r="9"/></g><g id="Mouth"><path class="cls-4" d="M187,171.18v5.64c0,3.8-2.52,7.25-5.63,7.65A381.14,381.14,0,0,1,61.63,181.4c-3.11-.58-5.63-3.1-5.63-5.56v-3.68c0-2.47,2.52-4.09,5.63-3.69l.37.05c3.66.48,7.33.92,11,1.29l3.71.37q5.49.51,11,.85c1.58.11,3.15.2,4.72.27q4.5.24,9,.35c1.9.06,3.81.1,5.71.12q4.5,0,9,0c1.57,0,3.15,0,4.72-.08q5.51-.13,11-.43c1.57-.07,3.14-.17,4.71-.28q4.5-.28,9-.69c1.41-.12,2.81-.25,4.22-.4q6-.6,12-1.39l3.21-.44q5.5-.76,11-1.71,2.69-.45,5.37-.95C184.48,164.82,187,167.38,187,171.18Z"/><g id="Teeth"><path class="cls-3" d="M73,169.81v4.3A1.89,1.89,0,0,1,71.11,176H63.89A1.89,1.89,0,0,1,62,174.11v-5.59C65.66,169,69.33,169.44,73,169.81Z"/><path class="cls-3" d="M87.71,171v4.34A2.63,2.63,0,0,1,85.08,178H79.34a2.64,2.64,0,0,1-2.63-2.63v-5.19Q82.2,170.69,87.71,171Z"/><path class="cls-3" d="M101.43,171.65v5.72A1.63,1.63,0,0,1,99.8,179H94.06a1.63,1.63,0,0,1-1.63-1.63V171.3Q96.93,171.54,101.43,171.65Z"/><path class="cls-3" d="M116.14,171.77v5.6a1.63,1.63,0,0,1-1.63,1.63h-5.74a1.64,1.64,0,0,1-1.63-1.63v-5.6Q111.64,171.82,116.14,171.77Z"/><path class="cls-3" d="M131.86,171.26v6.11a2.64,2.64,0,0,1-2.63,2.63h-5.74a2.63,2.63,0,0,1-2.63-2.63v-5.68Q126.37,171.56,131.86,171.26Z"/><path class="cls-3" d="M145.57,170.29v6.08a1.63,1.63,0,0,1-1.63,1.63H138.2a1.63,1.63,0,0,1-1.63-1.63V171Q141.07,170.7,145.57,170.29Z"/><path class="cls-3" d="M161.79,168.5v7.37a3.14,3.14,0,0,1-3.13,3.13h-5.74a3.13,3.13,0,0,1-3.13-3.13v-6Q155.79,169.29,161.79,168.5Z"/><path class="cls-3" d="M176,166.35v8a2.63,2.63,0,0,1-2.63,2.63h-5.74a2.63,2.63,0,0,1-2.63-2.63v-6.31Q170.51,167.3,176,166.35Z"/></g></g><g id="Antenae"><path class="cls-2" d="M136.87,78.29C136.1,59.82,145.73,43.16,159,31a3,3,0,0,0-4.24-4.25C143.7,36.88,134.93,50,132,64.86a56.56,56.56,0,0,0-1.09,13.43,3,3,0,1,0,6,0Z"/><circle class="cls-2" cx="156.5" cy="29" r="12"/><path class="cls-2" d="M117.8,82.15a45.32,45.32,0,0,0,1.06-13.54,62.13,62.13,0,0,0-3-13.32A81.17,81.17,0,0,0,102.4,30.71c-1-1.27-3.2-1-4.24,0a3.08,3.08,0,0,0,0,4.25A72.44,72.44,0,0,1,110.1,56.89a55.72,55.72,0,0,1,2.76,11.72,39.68,39.68,0,0,1-.85,12,3.08,3.08,0,0,0,2.1,3.69,3,3,0,0,0,3.69-2.1Z"/><circle class="cls-2" cx="100.6" cy="33.05" r="9.09"/></g></g></svg>