<svg xmlns="http://www.w3.org/2000/svg" viewBox="0 0 240 240"><defs><style>.cls-1{fill:#e9f2f7;}.cls-2{fill:#40494c;}</style></defs><g id="Alien_3" data-name="Alien 3"><path id="Head" class="cls-1" d="M182,103c0-30.38-28.62-55-59-55S64,72.62,64,103c0,45,35,93,59,93C146,196,182,151,182,103Z"/><g id="Eyes"><path class="cls-2" d="M168.5,107.27a2.43,2.43,0,0,1,1.74,2.52,30.81,30.81,0,0,1-11.45,22.28c-8.12,6.36-18.72,7.76-28.76,4.79a2.43,2.43,0,0,1-1.74-2.52A30.79,30.79,0,0,1,139.76,112C147.87,105.69,158.47,104.29,168.5,107.27Z"/><path class="cls-2" d="M77.5,107.27a2.43,2.43,0,0,0-1.74,2.52,30.81,30.81,0,0,0,11.45,22.28c8.12,6.36,18.72,7.76,28.76,4.79a2.43,2.43,0,0,0,1.74-2.52A30.79,30.79,0,0,0,106.24,112C98.13,105.69,87.53,104.29,77.5,107.27Z"/></g></g></svg>