<svg xmlns="http://www.w3.org/2000/svg" viewBox="0 0 240 240"><defs><style>.cls-1{fill:#f7763e;}.cls-2{fill:#f4eeed;}.cls-3{fill:#4c3f3d;}.cls-4{fill:none;stroke:#ff966c;stroke-linecap:round;stroke-linejoin:round;stroke-width:6px;}.cls-5{fill:#ff966c;}</style></defs><g id="Alien_11" data-name="Alien 11"><path id="Body" class="cls-1" d="M157,115V240H81V115A37.87,37.87,0,0,1,92,88.26V70.59a27,27,0,0,1,54,0V88.26A37.87,37.87,0,0,1,157,115Z"/><g id="Small_Eye" data-name="Small Eye"><circle class="cls-2" cx="119" cy="70" r="18"/><circle class="cls-3" cx="119" cy="70" r="5"/></g><g id="Big_eye" data-name="Big eye"><circle class="cls-2" cx="119" cy="123.81" r="24.81"/><circle class="cls-3" cx="119" cy="123.81" r="5"/></g><g id="Mouth"><path class="cls-3" d="M144,182.57v6.86c0,11.31-5.4,20.57-12,20.57H106c-6.6,0-12-9.26-12-20.57v-6.86c0-9.86,4.09-18.14,9.51-20.12A7.07,7.07,0,0,1,106,162h26a7.07,7.07,0,0,1,2.49.45C139.91,164.43,144,172.71,144,182.57Z"/><path class="cls-2" d="M131.5,209a5.55,5.55,0,0,1-.09,1H107.59a5.55,5.55,0,0,1-.09-1,6,6,0,0,1,6-6h12a6,6,0,0,1,6,6Z"/><path class="cls-2" d="M112.5,162.5a4.5,4.5,0,0,1-9,0,1.93,1.93,0,0,1,0-.24A12,12,0,0,1,106,162h6.47A4.07,4.07,0,0,1,112.5,162.5Z"/><path class="cls-2" d="M134.5,162.5a4.5,4.5,0,0,1-9,0,4.07,4.07,0,0,1,0-.5H132a12,12,0,0,1,2.49.26A1.93,1.93,0,0,1,134.5,162.5Z"/></g><g id="Antennae"><path class="cls-4" d="M148,100s13-10,19-21,7-40,7-40"/><rect class="cls-1" x="162" y="32" width="20" height="40" rx="6.5" transform="translate(7.22 -19.67) rotate(6.69)"/><rect class="cls-5" x="164.65" y="37.31" width="14.69" height="29.38" rx="6.5" transform="translate(7.22 -19.67) rotate(6.69)"/><path class="cls-4" d="M88.7,100s-13-10-19-21-7-40-7-40"/><rect class="cls-1" x="54.7" y="32" width="20" height="40" rx="6.5" transform="translate(135.02 96.11) rotate(173.31)"/><rect class="cls-5" x="57.36" y="37.31" width="14.69" height="29.38" rx="6.5" transform="translate(135.02 96.11) rotate(173.31)"/></g></g></svg>