<svg xmlns="http://www.w3.org/2000/svg" viewBox="0 0 240 240"><defs><style>.cls-1{fill:#e6daef;}.cls-2{fill:#b59e55;}.cls-3{fill:#7f7149;}.cls-4{fill:#ede7da;}.cls-5{fill:#7f3838;}.cls-6{fill:#e2dbc9;}</style></defs><g id="Alien_6" data-name="Alien 6"><rect class="cls-1" width="240" height="240"/><path id="Head" class="cls-2" d="M166,144.49q-2.08-4.58-4.52-9c-1.69-3.13-3.5-6.2-5.35-9.2-4.94-8-10.23-15.55-14.91-22.61C132.87,91.88,126.3,81.49,120,81.79c-6.3-.3-12.87,10.09-21.22,21.92-8.09,12.2-18,25.82-24.78,40.78-6.61,14.82-8.61,32.41-.61,48.56,7.53,15.78,25,30.12,46.61,29.69,21.56.43,39.08-13.91,46.61-29.69C174.61,176.9,172.61,159.31,166,144.49Zm-15.4-8.65,0,0-.07.08Z"/><g id="Right_eye" data-name="Right eye"><path class="cls-3" d="M169.26,109.56a64.49,64.49,0,0,1-7.78,26c-1.69-3.13-3.5-6.2-5.35-9.2v0s0,0,0,0h0l0-.1,0-.07c.54-1.33,1-2.69,1.46-4.07a61.68,61.68,0,0,0,2-8.15c.13-.76.25-1.52.36-2.29,0,0,0-.06,0-.1h0s0,0,0,0v0c0-.41.09-.82.13-1.23.14-1.29.24-2.58.3-3.88a88.16,88.16,0,0,0-.05-9.48c-.11-1.79-.26-3.57-.44-5.35-.09-.8-.18-1.61-.28-2.42,0-.26-.07-.52-.11-.79a.25.25,0,0,0,0-.08v0s0,0,0-.06c0-.18-.06-.42-.07-.49-1.92-13.37-5.27-26.54-8.16-39.72a4.61,4.61,0,0,1,3.14-5.54A4.55,4.55,0,0,1,160,45.47c1.69,7.7,3.41,15.4,5.07,23.12C168,82,170.56,95.82,169.26,109.56Z"/><ellipse class="cls-3" cx="154.5" cy="46.25" rx="28" ry="29"/><path class="cls-2" d="M174.24,35.07a102,102,0,0,0-13.6-1h-1.11a102.4,102.4,0,0,0-17.6,1.5q-4.23.73-8.22,1.8a22.18,22.18,0,0,1,40.53-2.26Z"/><path class="cls-4" d="M177,46.25c0,12.87-10.07,23.3-22.5,23.3S132,59.12,132,46.25a23.93,23.93,0,0,1,1.71-8.92A100.19,100.19,0,0,1,159.53,34a103.64,103.64,0,0,1,14.71,1A23.81,23.81,0,0,1,177,46.25Z"/><path class="cls-5" d="M165,43.75a13,13,0,1,1-23.07-8.22,102.4,102.4,0,0,1,17.6-1.5h1.11A13,13,0,0,1,165,43.75Z"/></g><g id="Left_eye" data-name="Left eye"><path class="cls-3" d="M70.74,109.56a64.49,64.49,0,0,0,7.78,26c1.69-3.13,3.5-6.2,5.35-9.2v0s0,0,0,0h0l0-.1,0-.07c-.54-1.33-1-2.69-1.46-4.07a61.68,61.68,0,0,1-2-8.15c-.13-.76-.25-1.52-.36-2.29,0,0,0-.06,0-.1h0s0,0,0,0v0c0-.41-.09-.82-.13-1.23-.14-1.29-.24-2.58-.3-3.88a88.16,88.16,0,0,1,0-9.48c.11-1.79.26-3.57.44-5.35.09-.8.18-1.61.28-2.42,0-.26.07-.52.11-.79a.25.25,0,0,1,0-.08v0s0,0,0-.06c0-.18.06-.42.07-.49C82.4,74.21,85.75,61,88.64,47.86a4.61,4.61,0,0,0-3.14-5.54A4.55,4.55,0,0,0,80,45.47c-1.69,7.7-3.41,15.4-5.07,23.12C72,82,69.44,95.82,70.74,109.56Z"/><ellipse class="cls-3" cx="85.5" cy="46.25" rx="28" ry="29"/><path class="cls-2" d="M65.76,35.07a102,102,0,0,1,13.6-1h1.11a102.4,102.4,0,0,1,17.6,1.5q4.23.73,8.22,1.8a22.18,22.18,0,0,0-40.53-2.26Z"/><path class="cls-4" d="M63,46.25c0,12.87,10.07,23.3,22.5,23.3S108,59.12,108,46.25a23.93,23.93,0,0,0-1.71-8.92A100.19,100.19,0,0,0,80.47,34a103.64,103.64,0,0,0-14.71,1A23.81,23.81,0,0,0,63,46.25Z"/><path class="cls-5" d="M75,43.75a13,13,0,1,0,23.07-8.22A102.4,102.4,0,0,0,80.47,34H79.36A13,13,0,0,0,75,43.75Z"/></g><g id="Mouth"><path class="cls-5" d="M163.17,183.3a4,4,0,0,1-5.14,2.37,14.07,14.07,0,0,0-4.8-.7,75,75,0,0,0-12,1.54,113.21,113.21,0,0,1-17.6,2.13h-1.28c-1.67,0-3.31,0-4.93-.12-5.32-.23-10.35-.8-14.92-1.31-5.82-.65-11.11-1.25-15.11-.93a12.24,12.24,0,0,0-4.85,1.2,4,4,0,0,1-3.83-7c3.17-1.72,6.94-2.29,11.32-2.27a130.45,130.45,0,0,1,13.37,1.08c3.55.4,7.38.83,11.37,1.1,2.48.17,5,.28,7.58.28,1.32,0,2.63-.05,3.92-.14a121.64,121.64,0,0,0,13.56-1.88,101.38,101.38,0,0,1,10.87-1.55,23.67,23.67,0,0,1,10.14,1.09A4,4,0,0,1,163.17,183.3Z"/><path class="cls-6" d="M114.73,180.37c-4-.27-7.82-.7-11.37-1.1A130.45,130.45,0,0,0,90,178.19l10.84-33.35a1.23,1.23,0,0,1,2.34,0Z"/><path class="cls-6" d="M150.66,177.08a101.38,101.38,0,0,0-10.87,1.55,121.64,121.64,0,0,1-13.56,1.88l11.6-35.67a1.23,1.23,0,0,1,2.34,0Z"/></g><g id="Nostrils"><ellipse class="cls-3" cx="115" cy="136.75" rx="3" ry="5"/><ellipse class="cls-3" cx="125" cy="136.75" rx="3" ry="5"/></g></g></svg>