<svg xmlns="http://www.w3.org/2000/svg" viewBox="0 0 240 240"><defs><style>.cls-1{fill:#007fa3;}.cls-2{fill:#49c6b3;}.cls-3{fill:#c95065;}</style></defs><g id="Alien_4" data-name="Alien 4"><g id="Amoeba"><path class="cls-1" d="M113.8,119c-.11-.14-.22-.27-.32-.41a1.14,1.14,0,0,0,.15.17Z"/><path class="cls-1" d="M200.15,92.18a3.43,3.43,0,0,1-1.28,2.15c-4.66,5-4.6,13-9,18.26-2,2.38-4.67,4-7.26,5.66-7.58,4.85-14.88,10.78-18.87,18.86-1.94,3.9-3.3,8.52-7.06,10.76-3.09,1.83-7,1.5-10.35,2.77-2.75,1.06-5.23,3.2-8.17,3.08-2.2-.09-4.12-1.46-5.84-2.84a87.57,87.57,0,0,1-15.58-16.14,13.51,13.51,0,0,1-2.11-3.63c-1-3,0-6.33,1.86-8.89s4.35-4.52,6.72-6.58a78.09,78.09,0,0,0,12.19-13.49c2.13-3,4.13-6.22,7.17-8.28,4.81-3.28,11.55-3.15,15.81-7.13,2.39-2.22,3.6-5.41,4.43-8.56a8.44,8.44,0,0,1,1.59-3.73,7.4,7.4,0,0,1,2.62-1.6c4.33-1.82,10.5-3.81,13.53-3.78s5.33,1.72,8.83,5.42c1.86,2,2.92,7,6.22,10.3s4,5.93,4,5.93A2.9,2.9,0,0,1,200.15,92.18Z"/><path class="cls-2" d="M200.15,92.18a3.43,3.43,0,0,1-1.28,2.15c-4.66,5-4.6,13-9,18.26-2,2.38-4.67,4-7.26,5.66-7.58,4.85-14.88,10.78-18.87,18.86-1.94,3.9-3.3,8.52-7.06,10.76-3.09,1.83-7,1.5-10.35,2.77-2.75,1.06-5.23,3.2-8.17,3.08-2.2-.09-4.12-1.46-5.84-2.84a87.57,87.57,0,0,1-15.58-16.14,13.51,13.51,0,0,1-2.11-3.63c-1-3,0-6.33,1.86-8.89s4.35-4.52,6.72-6.58a78.09,78.09,0,0,0,12.19-13.49c2.13-3,4.13-6.22,7.17-8.28,4.81-3.28,11.55-3.15,15.81-7.13,2.39-2.22,3.6-5.41,4.43-8.56a8.44,8.44,0,0,1,1.59-3.73,7.4,7.4,0,0,1,2.62-1.6c4.33-1.82,10.5-3.81,13.53-3.78s5.33,1.72,8.83,5.42c1.86,2,2.92,7,6.22,10.3s4,5.93,4,5.93A2.9,2.9,0,0,1,200.15,92.18Z"/><path class="cls-1" d="M183.48,83.83l-7.35.32a9,9,0,0,0-4.78,1.11,8.51,8.51,0,0,0-2.58,3.61,4.6,4.6,0,0,0-.58,2.3,4.21,4.21,0,0,0,.52,1.49,7.66,7.66,0,0,0,7.16,4.57,12,12,0,0,0,4.92-.34A6.66,6.66,0,0,0,184.65,94a8.26,8.26,0,0,0,.87-2.62,38.78,38.78,0,0,0,.49-3.86,4.56,4.56,0,0,0-.22-2.41,1.54,1.54,0,0,0-2-.79Z"/><path class="cls-2" d="M182.79,92.17a1.82,1.82,0,0,0-1.88-.66.93.93,0,0,0-.56.36.87.87,0,0,0,.15,1,1.35,1.35,0,0,0,1.66.33,1.2,1.2,0,0,0,.44-1.59Z"/><path class="cls-1" d="M167.8,119A14.12,14.12,0,0,0,151,116.47a2.92,2.92,0,0,0-1,.77,2.66,2.66,0,0,0-.39,1.52,9.27,9.27,0,0,0,4.26,7.62,13.05,13.05,0,0,0,8.73,1.85,4.2,4.2,0,0,0,2.78-1.16,4.81,4.81,0,0,0,.84-1.82l1.73-5.79Z"/><path class="cls-2" d="M163.41,122.17a8.24,8.24,0,0,0-.55-2.29,3.49,3.49,0,0,0-1.24-1.68,4.36,4.36,0,0,0-1.74-.53,5.05,5.05,0,0,0-2.32,0,.37.37,0,0,0-.17.1.32.32,0,0,0,0,.27c.61,1.62,2.78,2.09,3.67,3.58.19.32.31.68.49,1a1.62,1.62,0,0,0,.8.75.77.77,0,0,0,.95-.37Z"/><path class="cls-1" d="M139.52,137.86a5.25,5.25,0,0,1-3.34-3.46,13.79,13.79,0,0,1-.51-5,19.82,19.82,0,0,0-.22-5,18,18,0,0,0-2-4.67c-.56-1-1.26-2.15-2.41-2.37a4,4,0,0,0-2.4.61c-2.79,1.38-5.64,2.81-7.79,5.06a7,7,0,0,0-1.25,1.67c-1.2,2.39-.15,5.37,1.62,7.37s4.16,3.32,6.27,5c1.65,1.29,3.13,2.78,4.82,4a10.18,10.18,0,0,0,5.76,2.19,1.82,1.82,0,0,0,1.7-.74,2.12,2.12,0,0,0,.13-1c0-1.15.6-1.7.6-2.6S139.52,137.86,139.52,137.86Z"/><path class="cls-2" d="M130.13,123.49a6.12,6.12,0,0,0-3-.63,2.57,2.57,0,0,0-1.82.4,1.56,1.56,0,0,0-.45,1.44,2.94,2.94,0,0,0,.73,1.38,5.24,5.24,0,0,0,3.24,1.75,1.7,1.7,0,0,0,2.27-1.61,5.72,5.72,0,0,0-.21-2.29Z"/><path class="cls-1" d="M140.62,110.21a1.29,1.29,0,0,0,0,2.13,2.15,2.15,0,0,0,1.17.29.92.92,0,0,0,.49-.1.75.75,0,0,0,.29-.34,2.62,2.62,0,0,0,.31-1.67,6.14,6.14,0,0,0-.3-1l-.92-2.47c-.1-.27-.32-.6-.59-.51a.55.55,0,0,0-.27.42,4.81,4.81,0,0,0-.07,1.89,1.38,1.38,0,0,1-.09,1.1Z"/><path class="cls-1" d="M158.21,106.49l-1.93-1.16a3.63,3.63,0,0,1-1-.82,1.25,1.25,0,0,1-.23-1.25.46.46,0,0,1,.52-.28,4.48,4.48,0,0,1,1.29.39,2.48,2.48,0,0,1,1.49,1.18,7.65,7.65,0,0,1,.18.83.77.77,0,0,0,.55.59Z"/><path class="cls-1" d="M178.62,112.14a11.92,11.92,0,0,1-1.27-1.88,3.89,3.89,0,0,1-.43-2.19c.07-.5.26-1.09-.08-1.47a.33.33,0,0,0-.31-.13.35.35,0,0,0-.16.08,3.44,3.44,0,0,0-1.57,2.13,2.48,2.48,0,0,0,.46,1.7,4.55,4.55,0,0,0,1.32,1.19c.45.29,1,.6,1,1.13Z"/><path class="cls-1" d="M154.25,139.28a8.12,8.12,0,0,0-1.51-2.14,3.8,3.8,0,0,0-2.32-1.12.57.57,0,0,0-.29,0,.53.53,0,0,0-.28.53,1.36,1.36,0,0,0,.69,1,6.37,6.37,0,0,0,1.19.46,7.78,7.78,0,0,1,2.27,1.22Z"/><path class="cls-3" d="M144.44,126.43a3.12,3.12,0,0,1-.36,1.29l-.72,1.64c-.16.36-.3.83,0,1.1s.8.09,1-.25a3.35,3.35,0,0,0,.34-1.14,12.82,12.82,0,0,0,.42-1.5,1.23,1.23,0,0,0-.59-1.32Z"/><path class="cls-3" d="M150.46,95.44a6.23,6.23,0,0,0-1.94,3.72.31.31,0,0,0,.37.4,1.15,1.15,0,0,0,1-.23,1.14,1.14,0,0,0,.23-.31l.71-1.19a5.1,5.1,0,0,0,.56-1.15,1.79,1.79,0,0,0,0-1.25Z"/><path class="cls-3" d="M176.45,74.58c-.26,1.16.42,2.3.63,3.48a6,6,0,0,0,.38,1.86,1.52,1.52,0,0,0,.32-1.4,13.76,13.76,0,0,0-.48-1.41,10.45,10.45,0,0,1-.32-1.65l-.11-.89Z"/><path class="cls-3" d="M186.87,101a6.41,6.41,0,0,1,4.5.33.52.52,0,0,1,.17.12.23.23,0,0,1-.06.32.42.42,0,0,1-.22,0l-.69,0a6.8,6.8,0,0,1-4.19-.74Z"/><path class="cls-3" d="M165,111.38a8.17,8.17,0,0,0,.48-2.11,6.75,6.75,0,0,1,.18-2.38,1.19,1.19,0,0,1,.52.86,3.5,3.5,0,0,1-.05,1l-.3,2.13Z"/><path class="cls-3" d="M144.15,147a15.07,15.07,0,0,0,.34-2.58,3.42,3.42,0,0,1,.63-2.33,1.78,1.78,0,0,1,.39,1,8.54,8.54,0,0,1-.13,1.88,5.17,5.17,0,0,1-.34,1.34,1.75,1.75,0,0,1-.95,1Z"/><path class="cls-1" d="M102.94,118.65l-.13-.09a3.61,3.61,0,0,0-.3-.25C102.65,118.42,102.8,118.52,102.94,118.65Z"/><path class="cls-1" d="M105.8,121.51l-.18-.22-.45-.61Z"/><path class="cls-1" d="M113.8,119c-.11-.14-.22-.27-.32-.41a1.14,1.14,0,0,0,.15.17Z"/><path class="cls-1" d="M218.65,87.45A4.06,4.06,0,0,0,216.81,85a7,7,0,0,0-3.6-.77c-.74,0-1.48.12-2.22.18l-4.52.39a5.41,5.41,0,0,0-1.53.32c-.81-1.1-1.68-2.15-2.6-3.17,2.42-1.38,4.87-2.71,7.33-4a4,4,0,0,0,1.44-5.5,4.09,4.09,0,0,0-5.49-1.44q-4.47,2.32-8.83,4.84l-.14.09a5.62,5.62,0,0,1-.65-1.46c-.2-.73-.23-1.49-.36-2.23,3.26-2.84,6.31-6,7.45-10.37a4.19,4.19,0,0,0-.41-3.1A4.08,4.08,0,0,0,200.29,57a4,4,0,0,0-3.1.41,4.12,4.12,0,0,0-1.85,2.4,6.46,6.46,0,0,1-.31.94,12.22,12.22,0,0,1-1.26,2.15,30.71,30.71,0,0,1-3.87,3.78c-.82-.33-1.67-.61-2.48-.86l-.89-.24a8.65,8.65,0,0,0,.68-2.22,11.29,11.29,0,0,0,0-3.89,14.38,14.38,0,0,0-1.5-3.89,1.75,1.75,0,0,1-.11-.35,4,4,0,0,0-2.9-4.38,4,4,0,0,0-4.94,2.81,7.35,7.35,0,0,0,.26,4.23c.34.86.76,1.67,1.15,2.51,0,0,0,0,0,0,.07.22.13.45.18.67a3.75,3.75,0,0,1,0,.67,5.68,5.68,0,0,1-.35,1.13l.12-.28a5.5,5.5,0,0,0-.29,1.11,10.28,10.28,0,0,0-3.37.15,22.21,22.21,0,0,0-4.35,1.87,20.62,20.62,0,0,0-.2-4.06,50,50,0,0,0-1.25-5.28,4.05,4.05,0,0,0-4.93-2.81,4.12,4.12,0,0,0-2.82,5c.4,1.55.87,3.1,1.15,4.69a.43.43,0,0,1,0,0,13.43,13.43,0,0,1,0,2.69.43.43,0,0,0,0,.05c0,.19-.07.37-.1.55a4.66,4.66,0,0,0,0,2,12.33,12.33,0,0,0-1.84,1l-.62.43a6.28,6.28,0,0,0-.27-.59,11.89,11.89,0,0,0-2.06-2.68,24,24,0,0,0-4.59-3.76,4.12,4.12,0,0,0-3.09-.4,4,4,0,0,0-1,7.34c.37.23.72.48,1.07.74a.1.1,0,0,1,.05,0,17.32,17.32,0,0,1,2.31,2.22,1.64,1.64,0,0,1,.14.22.75.75,0,0,1,0,.16,7.78,7.78,0,0,0,.91,3.31,4.12,4.12,0,0,0,.67.84c-.26.42-.53.84-.8,1.25-.36.56-.75,1.11-1.15,1.65-.54-.5-1.08-1-1.59-1.56C150,77.52,149,76.15,147.8,75a14.36,14.36,0,0,0-5.24-3l-2.05-.7-.39-.2-.39-.23-.08,0h0a4,4,0,0,0-5.53.13c-1.36,1.49-1.71,4.23,0,5.68a15.77,15.77,0,0,0,5.42,2.82l1,.34L141,80l0,0c.3.15.58.32.86.49s.28.24.41.37c1.21,1.16,2.19,2.55,3.35,3.75.54.56,1.08,1.08,1.65,1.59a37.61,37.61,0,0,1-5.45,4l-.09.05a3.33,3.33,0,0,0-.31-.7,19.16,19.16,0,0,0-7.5-7.92,4,4,0,0,0-5.49,1.45,4.08,4.08,0,0,0-.41,3.09,4.23,4.23,0,0,0,1.85,2.4,11.65,11.65,0,0,1,1.32.88,14.15,14.15,0,0,1,2,2,14.57,14.57,0,0,1,1.29,2.15,2.91,2.91,0,0,0,.59.79,14.17,14.17,0,0,0-1.25,1.2,13,13,0,0,0-1.14,1.43,20.58,20.58,0,0,0-4-3.73c-1.63-1.25-3.31-2.44-5-3.66a4,4,0,0,0-5.5,1.45,4,4,0,0,0-.4,3.1c.13.32.26.63.4,1a4,4,0,0,0,1.45,1.45c1.55,1.13,3.12,2.26,4.65,3.43a13.56,13.56,0,0,1,1.86,1.77c.16.23.3.46.43.69a3.71,3.71,0,0,0,1.08,1.19c-1.58,1.57-3.35,3-5.07,4.39a29,29,0,0,0-3.36-4.88c-1.62-2.1-3.26-4.19-4.89-6.29a4,4,0,0,0-2.84-1.18,4.08,4.08,0,0,0-2.84,1.18,4,4,0,0,0-1.18,2.84c0,.36.09.72.14,1.07a4,4,0,0,0,1,1.77c1.74,2.25,3.49,4.48,5.22,6.73a15.35,15.35,0,0,1,1.52,2.34,7.32,7.32,0,0,1,.26,1,3.28,3.28,0,0,0,.73,1.42,49.24,49.24,0,0,0-3.26,4.1,28.23,28.23,0,0,0-3.64-4.43,48.05,48.05,0,0,0-5.5-4.12,4.11,4.11,0,0,0-3.09-.4,4,4,0,0,0-2.81,5,4.49,4.49,0,0,0,1.85,2.4c.92.62,1.86,1.25,2.76,1.93a3.61,3.61,0,0,0-.3-.25c.14.11.29.21.43.34l-.13-.09a17.29,17.29,0,0,1,2.81,2.73l-.45-.61.63.83-.18-.22c.84,1.15,1.61,2.34,2.54,3.44a2.76,2.76,0,0,0,.75.59l-.18.34c-.23.45-.45.93-.66,1.4l-14.95-3.9A4,4,0,1,0,91,130.91l16.61,4.34a.71.71,0,0,0,.21,0c.11.53.23,1.06.35,1.59a92.62,92.62,0,0,0-9.56.51,4.28,4.28,0,0,0-2.84,1.18,4.1,4.1,0,0,0-1.18,2.84,4,4,0,0,0,1.18,2.84,3.86,3.86,0,0,0,2.84,1.18,97.31,97.31,0,0,1,12.07-.51,3.41,3.41,0,0,0,1.15-.17,9,9,0,0,0,1.92,1.55l.25.14c-3.81,4.32-4.31,11.95-9.46,14.91-5.9,3.4-13.57-1.66-20.06.36-3.18,1-5.61,3.53-7.64,6.15-2.66,3.42-5.38,7.46-9.63,8.22-2.74.49-5.49-.53-8.25-.86a17.14,17.14,0,0,0-13.29,4.15c-2.81,2.5-5,6.06-8.57,7.16-4.92,1.5-10.65-2.22-15.28-.81a.88.88,0,0,0-.14,1.61A18.71,18.71,0,0,0,28.15,189c6.13.7,13,.53,17.62-3.57,2-1.79,3.51-4.25,5.9-5.51,4.88-2.57,10.77,1,16.27.53,6-.47,10.52-5.51,13.54-10.68A9.19,9.19,0,0,1,83.54,167a6.92,6.92,0,0,1,3.64-1.19c5.71-.55,11.62,1.46,17.14-.1a18.35,18.35,0,0,0,9.26-6.8,44.17,44.17,0,0,0,4.47-7.6,5.11,5.11,0,0,0,1.9,1.09,22.46,22.46,0,0,0-1.38,1.83,20.14,20.14,0,0,0-2,3.54,3.15,3.15,0,0,0-.47,1.5,2.91,2.91,0,0,0,.07,1.6,4,4,0,0,0,4.94,2.8l1-.4a4,4,0,0,0,1.44-1.44,20.89,20.89,0,0,1,2.38-4.09c.1-.1.18-.21.28-.32a10.87,10.87,0,0,0,.9,1.24,7.61,7.61,0,0,0,4,2.35,11.22,11.22,0,0,1,.33,1.39,15.33,15.33,0,0,1,0,2.71A11.35,11.35,0,0,1,131,167a4,4,0,0,0-.35.46,4.09,4.09,0,0,0,6.08,5.28,5,5,0,0,0,1.62-2.45,15.31,15.31,0,0,0,.94-3.51,19.93,19.93,0,0,0-.06-6.31l.77-.26c1.17-.42,2.32-.91,3.48-1.39.38,2.8.82,5.6,1.37,8.38a4,4,0,0,0,7.34,1,4.39,4.39,0,0,0,.4-3.1c-.45-2.33-.84-4.68-1.16-7-.07-.54-.14-1.07-.2-1.6a12.24,12.24,0,0,1,1.92-.07,18.23,18.23,0,0,0,3.13.07l.33.24c2.8,2.24,5.24,5,8.44,6.71a4.19,4.19,0,0,0,3.1.41,4,4,0,0,0,1-7.34,18.83,18.83,0,0,1-2-1.31c-1.85-1.48-3.53-3.16-5.39-4.64q1.25-2.44,2.7-4.77a3.72,3.72,0,0,0,1.19,1.07c.57.33,1.11.69,1.65,1.07,0,0,0,0,0,0a19.82,19.82,0,0,1,2.89,2.83,3,3,0,0,0,1.29.83,3.07,3.07,0,0,0,1.55.35,3,3,0,0,0,1.54-.35,3.06,3.06,0,0,0,1.3-.83,4.12,4.12,0,0,0,1.18-2.84c0-.35-.1-.71-.14-1.07a4.17,4.17,0,0,0-1-1.78,20.76,20.76,0,0,0-2.52-2.53,26.38,26.38,0,0,0-3.67-2.63,4,4,0,0,0-.9-.37c1-1.23,2-2.41,3-3.55.32.44.68.86,1,1.27a20.67,20.67,0,0,0,2.81,2.64,2.88,2.88,0,0,0,1.29.83,2.94,2.94,0,0,0,1.55.34,4,4,0,0,0,4-4c-.05-.34-.09-.7-.15-1.06a4.08,4.08,0,0,0-1-1.78,19.63,19.63,0,0,1-3.35-3.28h0c-.11-.14-.21-.29-.31-.43a47.9,47.9,0,0,1,5.62-3.87,3.32,3.32,0,0,0,.38.46,37.69,37.69,0,0,1,2.8,3.13c.67.88,1.29,1.77,1.87,2.7a4.27,4.27,0,0,0,2.41,1.84,4,4,0,0,0,4.53-5.9,42.91,42.91,0,0,0-4.65-6.1,16,16,0,0,0,1.47-1,16.66,16.66,0,0,0,1.26-1.11c1.3.89,2.64,1.71,4,2.49a3.09,3.09,0,0,0,1.5.48,3.18,3.18,0,0,0,1.59-.07,3,3,0,0,0,1.37-.73,2.88,2.88,0,0,0,1-1.12,4.06,4.06,0,0,0,.41-3.1,4.16,4.16,0,0,0-1.85-2.4c-1.23-.7-2.43-1.43-3.61-2.22,1-2.22,1.9-4.59,2.84-6.89a49.79,49.79,0,0,1,5.3,1.88l.57.24a2.9,2.9,0,0,0,1.5.48,3.11,3.11,0,0,0,1.6-.07,4.12,4.12,0,0,0,2.4-1.85,4.08,4.08,0,0,0,.41-3.09,3.92,3.92,0,0,0-1.85-2.41,63.21,63.21,0,0,0-6.2-2.43,17,17,0,0,1,2.06-2.43,9,9,0,0,0,2.24-2.66,3.91,3.91,0,0,0,.27-2l1.55-.13,1.94-.16a10.73,10.73,0,0,1,1.13-.08h0a3.91,3.91,0,0,0,2.3.08,4.09,4.09,0,0,0,2.4-1.85A4,4,0,0,0,218.65,87.45ZM113.48,118.59a1.14,1.14,0,0,0,.15.17l.17.24C113.69,118.86,113.58,118.73,113.48,118.59Zm85.39-24.26c-4.66,5-4.6,13-9,18.26-2,2.38-4.67,4-7.26,5.66-7.58,4.85-14.88,10.78-18.87,18.86-1.94,3.9-3.3,8.52-7.06,10.76-3.09,1.83-7,1.5-10.35,2.77-2.75,1.06-5.23,3.2-8.17,3.08-2.2-.09-4.12-1.46-5.84-2.84a87.57,87.57,0,0,1-15.58-16.14,13.51,13.51,0,0,1-2.11-3.63c-1-3,0-6.33,1.86-8.89s4.35-4.52,6.72-6.58a78.09,78.09,0,0,0,12.19-13.49c2.13-3,4.13-6.22,7.17-8.28,4.81-3.28,11.55-3.15,15.81-7.13,2.39-2.22,3.6-5.41,4.43-8.56a8.44,8.44,0,0,1,1.59-3.73,7.4,7.4,0,0,1,2.62-1.6c4.33-1.82,10.5-3.81,13.53-3.78s5.33,1.72,8.83,5.42c1.86,2,2.92,7,6.22,10.3s4,5.93,4,5.93a2.9,2.9,0,0,1,.52,1.46A3.43,3.43,0,0,1,198.87,94.33Z"/></g></g></svg>